<mxfile host="app.diagrams.net" modified="2022-08-24T00:43:47.714Z" agent="5.0 (Macintosh; Intel Mac OS X 10_15_7) AppleWebKit/605.1.15 (KHTML, like Gecko) Version/15.6 Safari/605.1.15" etag="3yZUg6ok5RJR6wAmlvGo" version="20.2.6" type="github">
  <diagram id="KzLFwWgwkE4TGSCQlFzg" name="Page-1">
    <mxGraphModel dx="896" dy="496" grid="1" gridSize="10" guides="1" tooltips="1" connect="1" arrows="1" fold="1" page="1" pageScale="1" pageWidth="827" pageHeight="1169" math="0" shadow="0">
      <root>
        <mxCell id="0" />
        <mxCell id="1" parent="0" />
        <mxCell id="cJ1sr7imov4tNOzyhFV--1" value="Inicio" style="strokeWidth=2;html=1;shape=mxgraph.flowchart.terminator;whiteSpace=wrap;" vertex="1" parent="1">
          <mxGeometry x="170" y="50" width="100" height="40" as="geometry" />
        </mxCell>
        <mxCell id="cJ1sr7imov4tNOzyhFV--18" value="" style="edgeStyle=orthogonalEdgeStyle;rounded=0;orthogonalLoop=1;jettySize=auto;html=1;fontSize=13;exitX=0.5;exitY=1;exitDx=0;exitDy=0;entryX=0.5;entryY=0;entryDx=0;entryDy=0;" edge="1" parent="1" source="cJ1sr7imov4tNOzyhFV--15" target="cJ1sr7imov4tNOzyhFV--2">
          <mxGeometry relative="1" as="geometry" />
        </mxCell>
        <mxCell id="cJ1sr7imov4tNOzyhFV--2" value="&lt;div style=&quot;text-align: start;&quot;&gt;ancho, largo&lt;/div&gt;" style="shape=parallelogram;html=1;strokeWidth=2;perimeter=parallelogramPerimeter;whiteSpace=wrap;rounded=1;arcSize=12;size=0.23;" vertex="1" parent="1">
          <mxGeometry x="130" y="190" width="180" height="40" as="geometry" />
        </mxCell>
        <mxCell id="cJ1sr7imov4tNOzyhFV--3" value="total_plantas" style="strokeWidth=2;html=1;shape=mxgraph.flowchart.document2;whiteSpace=wrap;size=0.21413051060267857;" vertex="1" parent="1">
          <mxGeometry x="160" y="370" width="120" height="55" as="geometry" />
        </mxCell>
        <mxCell id="cJ1sr7imov4tNOzyhFV--4" value="Fin" style="strokeWidth=2;html=1;shape=mxgraph.flowchart.terminator;whiteSpace=wrap;" vertex="1" parent="1">
          <mxGeometry x="170" y="460" width="100" height="40" as="geometry" />
        </mxCell>
        <mxCell id="cJ1sr7imov4tNOzyhFV--5" value="" style="endArrow=classic;html=1;rounded=0;exitX=0.5;exitY=1;exitDx=0;exitDy=0;exitPerimeter=0;entryX=0.5;entryY=0;entryDx=0;entryDy=0;" edge="1" parent="1" source="cJ1sr7imov4tNOzyhFV--1" target="cJ1sr7imov4tNOzyhFV--15">
          <mxGeometry width="50" height="50" relative="1" as="geometry">
            <mxPoint x="110" y="115" as="sourcePoint" />
            <mxPoint x="60" y="135" as="targetPoint" />
          </mxGeometry>
        </mxCell>
        <mxCell id="cJ1sr7imov4tNOzyhFV--6" value="" style="endArrow=classic;html=1;rounded=0;exitX=0.5;exitY=1;exitDx=0;exitDy=0;entryX=0.5;entryY=0;entryDx=0;entryDy=0;" edge="1" parent="1" source="cJ1sr7imov4tNOzyhFV--2" target="cJ1sr7imov4tNOzyhFV--13">
          <mxGeometry width="50" height="50" relative="1" as="geometry">
            <mxPoint x="366" y="270" as="sourcePoint" />
            <mxPoint x="110" y="260" as="targetPoint" />
          </mxGeometry>
        </mxCell>
        <mxCell id="cJ1sr7imov4tNOzyhFV--7" value="" style="endArrow=classic;html=1;rounded=0;entryX=0.5;entryY=0;entryDx=0;entryDy=0;entryPerimeter=0;" edge="1" parent="1" source="cJ1sr7imov4tNOzyhFV--3" target="cJ1sr7imov4tNOzyhFV--4">
          <mxGeometry width="50" height="50" relative="1" as="geometry">
            <mxPoint x="196" y="650" as="sourcePoint" />
            <mxPoint x="226" y="470" as="targetPoint" />
          </mxGeometry>
        </mxCell>
        <mxCell id="cJ1sr7imov4tNOzyhFV--8" value="&lt;meta charset=&quot;utf-8&quot;&gt;&lt;div style=&quot;font-style: normal; font-variant-caps: normal; font-weight: normal; letter-spacing: normal; text-align: start; text-indent: 0px; text-transform: none; word-spacing: 0px; -webkit-text-stroke-width: 0px; text-decoration: none; color: rgb(171, 178, 191); background-color: rgb(40, 44, 52); font-family: &amp;quot;Fira Code&amp;quot;, &amp;quot;Menlo for Powerline&amp;quot;, Menlo, Monaco, &amp;quot;Courier New&amp;quot;, monospace; font-size: 12px; line-height: 18px;&quot;&gt;&lt;div&gt;&lt;span style=&quot;color: rgb(127, 132, 142); font-style: italic;&quot;&gt;DeclaraciÃ³n de variables e ingrese de datos&lt;/span&gt;&lt;/div&gt;&lt;/div&gt;" style="text;whiteSpace=wrap;html=1;" vertex="1" parent="1">
          <mxGeometry x="340" y="160" width="340" height="40" as="geometry" />
        </mxCell>
        <mxCell id="cJ1sr7imov4tNOzyhFV--9" value="&lt;div style=&quot;font-style: normal; font-variant-caps: normal; font-weight: normal; letter-spacing: normal; text-align: start; text-indent: 0px; text-transform: none; word-spacing: 0px; -webkit-text-stroke-width: 0px; text-decoration: none; color: rgb(171, 178, 191); background-color: rgb(40, 44, 52); font-family: &amp;quot;Fira Code&amp;quot;, &amp;quot;Menlo for Powerline&amp;quot;, Menlo, Monaco, &amp;quot;Courier New&amp;quot;, monospace; font-size: 12px; line-height: 18px;&quot;&gt;&lt;div&gt;&lt;span style=&quot;color: rgb(127, 132, 142); font-style: italic;&quot;&gt;Mostrar resultados al usuario&lt;/span&gt;&lt;/div&gt;&lt;/div&gt;" style="text;whiteSpace=wrap;html=1;" vertex="1" parent="1">
          <mxGeometry x="310" y="377.5" width="240" height="40" as="geometry" />
        </mxCell>
        <mxCell id="cJ1sr7imov4tNOzyhFV--10" style="edgeStyle=orthogonalEdgeStyle;rounded=0;orthogonalLoop=1;jettySize=auto;html=1;exitX=0.5;exitY=1;exitDx=0;exitDy=0;entryX=0.5;entryY=0;entryDx=0;entryDy=0;entryPerimeter=0;" edge="1" parent="1" source="cJ1sr7imov4tNOzyhFV--13" target="cJ1sr7imov4tNOzyhFV--3">
          <mxGeometry relative="1" as="geometry" />
        </mxCell>
        <mxCell id="cJ1sr7imov4tNOzyhFV--12" value="&lt;div style=&quot;font-style: normal; font-variant-caps: normal; font-weight: normal; letter-spacing: normal; text-align: start; text-indent: 0px; text-transform: none; word-spacing: 0px; -webkit-text-stroke-width: 0px; text-decoration: none; color: rgb(171, 178, 191); background-color: rgb(40, 44, 52); font-family: &amp;quot;Fira Code&amp;quot;, &amp;quot;Menlo for Powerline&amp;quot;, Menlo, Monaco, &amp;quot;Courier New&amp;quot;, monospace; font-size: 12px; line-height: 18px;&quot;&gt;&lt;div&gt;&lt;span style=&quot;color: rgb(127, 132, 142); font-style: italic;&quot;&gt;Desarrollo de operaciones&lt;/span&gt;&lt;/div&gt;&lt;/div&gt;" style="text;whiteSpace=wrap;html=1;" vertex="1" parent="1">
          <mxGeometry x="400" y="277.5" width="210" height="40" as="geometry" />
        </mxCell>
        <mxCell id="cJ1sr7imov4tNOzyhFV--13" value="&lt;div style=&quot;text-align: start;&quot;&gt;&lt;font size=&quot;2&quot;&gt;cont_lineas = (ancho*100)/30&lt;/font&gt;&lt;/div&gt;&lt;div style=&quot;text-align: start;&quot;&gt;&lt;font size=&quot;2&quot;&gt;cont_plantas = (largo*100)/25&lt;/font&gt;&lt;/div&gt;&lt;div style=&quot;text-align: start;&quot;&gt;&lt;font size=&quot;2&quot;&gt;total_plantas = cont_lineas * cont_plantas&lt;/font&gt;&lt;/div&gt;" style="rounded=1;whiteSpace=wrap;html=1;absoluteArcSize=1;arcSize=14;strokeWidth=2;" vertex="1" parent="1">
          <mxGeometry x="84.38" y="260" width="271.25" height="75" as="geometry" />
        </mxCell>
        <mxCell id="cJ1sr7imov4tNOzyhFV--15" value="&lt;div style=&quot;text-align: start;&quot;&gt;&lt;font size=&quot;2&quot;&gt;sep_plantas = 25&lt;/font&gt;&lt;/div&gt;&lt;div style=&quot;text-align: start;&quot;&gt;&lt;font size=&quot;2&quot;&gt;sep_lineas = 30&lt;/font&gt;&lt;/div&gt;" style="rounded=1;whiteSpace=wrap;html=1;absoluteArcSize=1;arcSize=14;strokeWidth=2;" vertex="1" parent="1">
          <mxGeometry x="143.75" y="115" width="152.5" height="45" as="geometry" />
        </mxCell>
      </root>
    </mxGraphModel>
  </diagram>
</mxfile>
